<svg width="152" height="131" viewBox="0 0 152 131" fill="none" xmlns="http://www.w3.org/2000/svg">
<circle cx="75.581" cy="65.499" r="7.39741" stroke="#5B5B5B" stroke-width="2"/>
<circle cx="83.9755" cy="51.2216" r="7.39741" stroke="#5B5B5B" stroke-width="2"/>
<circle cx="92.374" cy="65.499" r="7.39741" stroke="#5B5B5B" stroke-width="2"/>
<circle cx="83.9755" cy="79.7744" r="7.39741" stroke="#5B5B5B" stroke-width="2"/>
<circle cx="67.1826" cy="79.7744" r="7.39741" stroke="#5B5B5B" stroke-width="2"/>
<circle cx="58.7841" cy="65.499" r="7.39741" stroke="#5B5B5B" stroke-width="2"/>
<circle cx="67.1826" cy="51.2216" r="7.39741" stroke="#5B5B5B" stroke-width="2"/>
<circle cx="100.772" cy="22.6747" r="7.39741" stroke="#5B5B5B" stroke-width="2"/>
<circle cx="109.167" cy="8.39741" r="7.39741" stroke="#5B5B5B" stroke-width="2"/>
<circle cx="117.565" cy="22.6747" r="7.39741" stroke="#5B5B5B" stroke-width="2"/>
<circle cx="109.167" cy="36.9501" r="7.39741" stroke="#5B5B5B" stroke-width="2"/>
<circle cx="92.374" cy="36.9501" r="7.39741" stroke="#5B5B5B" stroke-width="2"/>
<circle cx="83.9755" cy="22.6747" r="7.39741" stroke="#5B5B5B" stroke-width="2"/>
<circle cx="92.374" cy="8.39741" r="7.39741" stroke="#5B5B5B" stroke-width="2"/>
<circle cx="100.772" cy="108.329" r="7.39741" stroke="#5B5B5B" stroke-width="2"/>
<circle cx="109.167" cy="94.0517" r="7.39741" stroke="#5B5B5B" stroke-width="2"/>
<circle cx="117.565" cy="108.329" r="7.39741" stroke="#5B5B5B" stroke-width="2"/>
<circle cx="109.167" cy="122.604" r="7.39741" stroke="#5B5B5B" stroke-width="2"/>
<circle cx="92.374" cy="122.604" r="7.39741" stroke="#5B5B5B" stroke-width="2"/>
<circle cx="83.9755" cy="108.329" r="7.39741" stroke="#5B5B5B" stroke-width="2"/>
<circle cx="92.374" cy="94.0517" r="7.39741" stroke="#5B5B5B" stroke-width="2"/>
<circle cx="125.964" cy="65.499" r="7.39741" stroke="#5B5B5B" stroke-width="2"/>
<circle cx="134.358" cy="51.2216" r="7.39741" stroke="#5B5B5B" stroke-width="2"/>
<circle cx="142.757" cy="65.499" r="7.39741" stroke="#5B5B5B" stroke-width="2"/>
<circle cx="134.358" cy="79.7744" r="7.39741" stroke="#5B5B5B" stroke-width="2"/>
<circle cx="117.565" cy="79.7744" r="7.39741" stroke="#5B5B5B" stroke-width="2"/>
<circle cx="109.167" cy="65.499" r="7.39741" stroke="#5B5B5B" stroke-width="2"/>
<circle cx="117.565" cy="51.2216" r="7.39741" stroke="#5B5B5B" stroke-width="2"/>
<circle cx="25.1943" cy="65.499" r="7.39741" stroke="#5B5B5B" stroke-width="2"/>
<circle cx="33.5888" cy="51.2216" r="7.39741" stroke="#5B5B5B" stroke-width="2"/>
<circle cx="41.9873" cy="65.499" r="7.39741" stroke="#5B5B5B" stroke-width="2"/>
<circle cx="33.5888" cy="79.7744" r="7.39741" stroke="#5B5B5B" stroke-width="2"/>
<circle cx="16.7958" cy="79.7744" r="7.39741" stroke="#5B5B5B" stroke-width="2"/>
<circle cx="8.39741" cy="65.499" r="7.39741" stroke="#5B5B5B" stroke-width="2"/>
<circle cx="16.7958" cy="51.2216" r="7.39741" stroke="#5B5B5B" stroke-width="2"/>
<circle cx="50.3818" cy="22.6747" r="7.39741" stroke="#5B5B5B" stroke-width="2"/>
<circle cx="58.7802" cy="8.39741" r="7.39741" stroke="#5B5B5B" stroke-width="2"/>
<circle cx="67.1787" cy="22.6747" r="7.39741" stroke="#5B5B5B" stroke-width="2"/>
<circle cx="58.7802" cy="36.9501" r="7.39741" stroke="#5B5B5B" stroke-width="2"/>
<circle cx="41.9833" cy="36.9501" r="7.39741" stroke="#5B5B5B" stroke-width="2"/>
<circle cx="33.5888" cy="22.6747" r="7.39741" stroke="#5B5B5B" stroke-width="2"/>
<circle cx="41.9833" cy="8.39741" r="7.39741" stroke="#5B5B5B" stroke-width="2"/>
<circle cx="50.3857" cy="108.329" r="7.39741" stroke="#5B5B5B" stroke-width="2"/>
<circle cx="58.7802" cy="94.0517" r="7.39741" stroke="#5B5B5B" stroke-width="2"/>
<circle cx="67.1787" cy="108.329" r="7.39741" stroke="#5B5B5B" stroke-width="2"/>
<circle cx="58.7802" cy="122.604" r="7.39741" stroke="#5B5B5B" stroke-width="2"/>
<circle cx="41.9873" cy="122.604" r="7.39741" stroke="#5B5B5B" stroke-width="2"/>
<circle cx="33.5888" cy="108.329" r="7.39741" stroke="#5B5B5B" stroke-width="2"/>
<circle cx="41.9873" cy="94.0517" r="7.39741" stroke="#5B5B5B" stroke-width="2"/>
</svg>
