<svg width="143" height="129" viewBox="0 0 143 129" fill="none" xmlns="http://www.w3.org/2000/svg">
<circle cx="47.678" cy="24.3518" r="3.89671" stroke="#5B5B5B" stroke-width="2"/>
<circle cx="52.6819" cy="16.0295" r="3.89671" stroke="#5B5B5B" stroke-width="2"/>
<circle cx="57.5764" cy="24.3518" r="3.89671" stroke="#5B5B5B" stroke-width="2"/>
<circle cx="52.6819" cy="32.6819" r="3.89671" stroke="#5B5B5B" stroke-width="2"/>
<circle cx="42.885" cy="32.6819" r="3.89671" stroke="#5B5B5B" stroke-width="2"/>
<circle cx="37.9905" cy="24.3518" r="3.89671" stroke="#5B5B5B" stroke-width="2"/>
<circle cx="42.885" cy="16.0295" r="3.89671" stroke="#5B5B5B" stroke-width="2"/>
<circle cx="37.9905" cy="7.86546" r="3.89671" stroke="#5B5B5B" stroke-width="2"/>
<circle cx="47.6389" cy="4.89671" r="3.89671" stroke="#5B5B5B" stroke-width="2"/>
<circle cx="57.2873" cy="7.86546" r="3.89671" stroke="#5B5B5B" stroke-width="2"/>
<circle cx="63.967" cy="14.5451" r="3.89671" stroke="#5B5B5B" stroke-width="2"/>
<circle cx="66.9358" cy="24.1936" r="3.89671" stroke="#5B5B5B" stroke-width="2"/>
<circle cx="64.7092" cy="33.842" r="3.89671" stroke="#5B5B5B" stroke-width="2"/>
<circle cx="57.2873" cy="40.5198" r="3.89671" stroke="#5B5B5B" stroke-width="2"/>
<circle cx="47.6389" cy="42.7444" r="3.89671" stroke="#5B5B5B" stroke-width="2"/>
<circle cx="37.9905" cy="40.5198" r="3.89671" stroke="#5B5B5B" stroke-width="2"/>
<circle cx="31.3108" cy="33.842" r="3.89671" stroke="#5B5B5B" stroke-width="2"/>
<circle cx="29.0842" cy="24.1936" r="3.89671" stroke="#5B5B5B" stroke-width="2"/>
<circle cx="31.3108" cy="14.5451" r="3.89671" stroke="#5B5B5B" stroke-width="2"/>
<circle cx="47.678" cy="105.709" r="3.89671" stroke="#5B5B5B" stroke-width="2"/>
<circle cx="52.6819" cy="97.3869" r="3.89671" stroke="#5B5B5B" stroke-width="2"/>
<circle cx="57.5764" cy="105.709" r="3.89671" stroke="#5B5B5B" stroke-width="2"/>
<circle cx="52.6819" cy="114.039" r="3.89671" stroke="#5B5B5B" stroke-width="2"/>
<circle cx="42.885" cy="114.039" r="3.89671" stroke="#5B5B5B" stroke-width="2"/>
<circle cx="37.9905" cy="105.709" r="3.89671" stroke="#5B5B5B" stroke-width="2"/>
<circle cx="42.885" cy="97.3869" r="3.89671" stroke="#5B5B5B" stroke-width="2"/>
<circle cx="37.9905" cy="89.2229" r="3.89671" stroke="#5B5B5B" stroke-width="2"/>
<circle cx="47.6389" cy="86.2541" r="3.89671" stroke="#5B5B5B" stroke-width="2"/>
<circle cx="57.2873" cy="89.2229" r="3.89671" stroke="#5B5B5B" stroke-width="2"/>
<circle cx="63.967" cy="95.9026" r="3.89671" stroke="#5B5B5B" stroke-width="2"/>
<circle cx="66.9358" cy="105.551" r="3.89671" stroke="#5B5B5B" stroke-width="2"/>
<circle cx="64.7092" cy="115.199" r="3.89671" stroke="#5B5B5B" stroke-width="2"/>
<circle cx="57.2873" cy="121.877" r="3.89671" stroke="#5B5B5B" stroke-width="2"/>
<circle cx="47.6389" cy="124.102" r="3.89671" stroke="#5B5B5B" stroke-width="2"/>
<circle cx="37.9905" cy="121.877" r="3.89671" stroke="#5B5B5B" stroke-width="2"/>
<circle cx="31.3108" cy="115.199" r="3.89671" stroke="#5B5B5B" stroke-width="2"/>
<circle cx="29.0842" cy="105.551" r="3.89671" stroke="#5B5B5B" stroke-width="2"/>
<circle cx="31.3108" cy="95.9026" r="3.89671" stroke="#5B5B5B" stroke-width="2"/>
<circle cx="95.3264" cy="24.3518" r="3.89671" stroke="#5B5B5B" stroke-width="2"/>
<circle cx="100.326" cy="16.0295" r="3.89671" stroke="#5B5B5B" stroke-width="2"/>
<circle cx="105.221" cy="24.3518" r="3.89671" stroke="#5B5B5B" stroke-width="2"/>
<circle cx="100.326" cy="32.6819" r="3.89671" stroke="#5B5B5B" stroke-width="2"/>
<circle cx="90.5295" cy="32.6819" r="3.89671" stroke="#5B5B5B" stroke-width="2"/>
<circle cx="85.635" cy="24.3518" r="3.89671" stroke="#5B5B5B" stroke-width="2"/>
<circle cx="90.5295" cy="16.0295" r="3.89671" stroke="#5B5B5B" stroke-width="2"/>
<circle cx="85.635" cy="7.86546" r="3.89671" stroke="#5B5B5B" stroke-width="2"/>
<circle cx="95.2834" cy="4.89671" r="3.89671" stroke="#5B5B5B" stroke-width="2"/>
<circle cx="104.932" cy="7.86546" r="3.89671" stroke="#5B5B5B" stroke-width="2"/>
<circle cx="111.612" cy="14.5451" r="3.89671" stroke="#5B5B5B" stroke-width="2"/>
<circle cx="114.58" cy="24.1936" r="3.89671" stroke="#5B5B5B" stroke-width="2"/>
<circle cx="112.354" cy="33.842" r="3.89671" stroke="#5B5B5B" stroke-width="2"/>
<circle cx="104.932" cy="40.5198" r="3.89671" stroke="#5B5B5B" stroke-width="2"/>
<circle cx="95.2834" cy="42.7444" r="3.89671" stroke="#5B5B5B" stroke-width="2"/>
<circle cx="85.635" cy="40.5198" r="3.89671" stroke="#5B5B5B" stroke-width="2"/>
<circle cx="78.9553" cy="33.842" r="3.89671" stroke="#5B5B5B" stroke-width="2"/>
<circle cx="76.7287" cy="24.1936" r="3.89671" stroke="#5B5B5B" stroke-width="2"/>
<circle cx="78.9553" cy="14.5451" r="3.89671" stroke="#5B5B5B" stroke-width="2"/>
<circle cx="95.3225" cy="105.709" r="3.89671" stroke="#5B5B5B" stroke-width="2"/>
<circle cx="100.326" cy="97.3869" r="3.89671" stroke="#5B5B5B" stroke-width="2"/>
<circle cx="105.221" cy="105.709" r="3.89671" stroke="#5B5B5B" stroke-width="2"/>
<circle cx="100.326" cy="114.039" r="3.89671" stroke="#5B5B5B" stroke-width="2"/>
<circle cx="90.5295" cy="114.039" r="3.89671" stroke="#5B5B5B" stroke-width="2"/>
<circle cx="85.635" cy="105.709" r="3.89671" stroke="#5B5B5B" stroke-width="2"/>
<circle cx="90.5295" cy="97.3869" r="3.89671" stroke="#5B5B5B" stroke-width="2"/>
<circle cx="85.635" cy="89.2229" r="3.89671" stroke="#5B5B5B" stroke-width="2"/>
<circle cx="95.2834" cy="86.2541" r="3.89671" stroke="#5B5B5B" stroke-width="2"/>
<circle cx="104.932" cy="89.2229" r="3.89671" stroke="#5B5B5B" stroke-width="2"/>
<circle cx="111.612" cy="95.9026" r="3.89671" stroke="#5B5B5B" stroke-width="2"/>
<circle cx="114.58" cy="105.551" r="3.89671" stroke="#5B5B5B" stroke-width="2"/>
<circle cx="112.354" cy="115.199" r="3.89671" stroke="#5B5B5B" stroke-width="2"/>
<circle cx="104.932" cy="121.877" r="3.89671" stroke="#5B5B5B" stroke-width="2"/>
<circle cx="95.2834" cy="124.102" r="3.89671" stroke="#5B5B5B" stroke-width="2"/>
<circle cx="85.635" cy="121.877" r="3.89671" stroke="#5B5B5B" stroke-width="2"/>
<circle cx="78.9553" cy="115.199" r="3.89671" stroke="#5B5B5B" stroke-width="2"/>
<circle cx="76.7287" cy="105.551" r="3.89671" stroke="#5B5B5B" stroke-width="2"/>
<circle cx="78.9553" cy="95.9026" r="3.89671" stroke="#5B5B5B" stroke-width="2"/>
<circle cx="118.78" cy="65.0315" r="3.89671" stroke="#5B5B5B" stroke-width="2"/>
<circle cx="123.783" cy="56.7092" r="3.89671" stroke="#5B5B5B" stroke-width="2"/>
<circle cx="128.678" cy="65.0315" r="3.89671" stroke="#5B5B5B" stroke-width="2"/>
<circle cx="123.783" cy="73.3615" r="3.89671" stroke="#5B5B5B" stroke-width="2"/>
<circle cx="113.987" cy="73.3615" r="3.89671" stroke="#5B5B5B" stroke-width="2"/>
<circle cx="109.092" cy="65.0315" r="3.89671" stroke="#5B5B5B" stroke-width="2"/>
<circle cx="113.987" cy="56.7092" r="3.89671" stroke="#5B5B5B" stroke-width="2"/>
<circle cx="109.092" cy="48.5451" r="3.89671" stroke="#5B5B5B" stroke-width="2"/>
<circle cx="118.74" cy="45.5764" r="3.89671" stroke="#5B5B5B" stroke-width="2"/>
<circle cx="128.389" cy="48.5451" r="3.89671" stroke="#5B5B5B" stroke-width="2"/>
<circle cx="135.069" cy="55.2248" r="3.89671" stroke="#5B5B5B" stroke-width="2"/>
<circle cx="138.037" cy="64.8733" r="3.89671" stroke="#5B5B5B" stroke-width="2"/>
<circle cx="135.811" cy="74.5217" r="3.89671" stroke="#5B5B5B" stroke-width="2"/>
<circle cx="128.389" cy="81.1994" r="3.89671" stroke="#5B5B5B" stroke-width="2"/>
<circle cx="118.74" cy="83.424" r="3.89671" stroke="#5B5B5B" stroke-width="2"/>
<circle cx="109.092" cy="81.1994" r="3.89671" stroke="#5B5B5B" stroke-width="2"/>
<circle cx="102.412" cy="74.5217" r="3.89671" stroke="#5B5B5B" stroke-width="2"/>
<circle cx="100.186" cy="64.8733" r="3.89671" stroke="#5B5B5B" stroke-width="2"/>
<circle cx="102.412" cy="55.2248" r="3.89671" stroke="#5B5B5B" stroke-width="2"/>
<circle cx="23.4905" cy="65.0315" r="3.89671" stroke="#5B5B5B" stroke-width="2"/>
<circle cx="28.4944" cy="56.7092" r="3.89671" stroke="#5B5B5B" stroke-width="2"/>
<circle cx="33.3889" cy="65.0315" r="3.89671" stroke="#5B5B5B" stroke-width="2"/>
<circle cx="28.4944" cy="73.3615" r="3.89671" stroke="#5B5B5B" stroke-width="2"/>
<circle cx="18.6975" cy="73.3615" r="3.89671" stroke="#5B5B5B" stroke-width="2"/>
<circle cx="13.803" cy="65.0315" r="3.89671" stroke="#5B5B5B" stroke-width="2"/>
<circle cx="18.6975" cy="56.7092" r="3.89671" stroke="#5B5B5B" stroke-width="2"/>
<circle cx="13.803" cy="48.5451" r="3.89671" stroke="#5B5B5B" stroke-width="2"/>
<circle cx="23.4514" cy="45.5764" r="3.89671" stroke="#5B5B5B" stroke-width="2"/>
<circle cx="33.0998" cy="48.5451" r="3.89671" stroke="#5B5B5B" stroke-width="2"/>
<circle cx="39.7795" cy="55.2248" r="3.89671" stroke="#5B5B5B" stroke-width="2"/>
<circle cx="42.7483" cy="64.8733" r="3.89671" stroke="#5B5B5B" stroke-width="2"/>
<circle cx="40.5217" cy="74.5217" r="3.89671" stroke="#5B5B5B" stroke-width="2"/>
<circle cx="33.0998" cy="81.1994" r="3.89671" stroke="#5B5B5B" stroke-width="2"/>
<circle cx="23.4514" cy="83.424" r="3.89671" stroke="#5B5B5B" stroke-width="2"/>
<circle cx="13.803" cy="81.1994" r="3.89671" stroke="#5B5B5B" stroke-width="2"/>
<circle cx="7.12327" cy="74.5217" r="3.89671" stroke="#5B5B5B" stroke-width="2"/>
<circle cx="4.89671" cy="64.8733" r="3.89671" stroke="#5B5B5B" stroke-width="2"/>
<circle cx="7.12327" cy="55.2248" r="3.89671" stroke="#5B5B5B" stroke-width="2"/>
</svg>
