<svg width="28" height="28" viewBox="0 0 28 28" fill="none" xmlns="http://www.w3.org/2000/svg">
<circle cx="13.9704" cy="13.9704" r="13.9704" fill="#D9D9D9"/>
<g clip-path="url(#clip0_1463_4705)">
<path d="M14 21C17.866 21 21 17.866 21 14C21 10.134 17.866 7 14 7C10.134 7 7 10.134 7 14C7 17.866 10.134 21 14 21Z" fill="#131313"/>
<path fill-rule="evenodd" clip-rule="evenodd" d="M11.6938 10.1058L13.1144 11.5206C13.3293 11.7351 13.3293 12.0353 13.1572 12.207L12.2534 13.15C13.114 14.0077 13.975 14.8654 14.836 15.7659L15.783 14.8226C15.9552 14.6508 16.2566 14.6937 16.4715 14.9082L17.8921 16.3234C18.107 16.5376 18.1503 16.8381 17.9782 17.0094L17.16 17.8243C15.4816 19.4965 8.46557 12.5068 10.188 10.8346C10.4462 10.5773 10.7043 10.3199 10.9625 10.0197C11.1346 9.84843 11.4789 9.89126 11.6938 10.1058ZM17.4614 10.1486V12.0353H16.8586V11.1348L14.5774 13.4077L14.1467 13.0215L16.4715 10.7057H15.6966V10.1486H17.4614Z" fill="white"/>
</g>
<defs>
<clipPath id="clip0_1463_4705">
<rect width="14" height="14" fill="white" transform="translate(7 7)"/>
</clipPath>
</defs>
</svg>
