<svg width="25" height="25" viewBox="0 0 25 25" fill="none" xmlns="http://www.w3.org/2000/svg">
<circle cx="12.5" cy="12.5" r="12.5" fill="black"/>
<path d="M12.4993 10.7227C12.0291 10.7227 11.5782 10.9092 11.2458 11.2412C10.9133 11.5732 10.7266 12.0234 10.7266 12.4929C10.7266 12.9624 10.9133 13.4127 11.2458 13.7447C11.5782 14.0767 12.0291 14.2632 12.4993 14.2632C12.9694 14.2632 13.4203 14.0767 13.7528 13.7447C14.0852 13.4127 14.272 12.9624 14.272 12.4929C14.272 12.0234 14.0852 11.5732 13.7528 11.2412C13.4203 10.9092 12.9694 10.7227 12.4993 10.7227Z" fill="white"/>
<path fill-rule="evenodd" clip-rule="evenodd" d="M8.80176 6.204C11.2597 5.932 13.7403 5.932 16.1983 6.204C17.5411 6.35366 18.6237 7.40905 18.7814 8.75458C19.0729 11.2428 19.0729 13.7564 18.7814 16.2447C18.6237 17.5902 17.5411 18.6456 16.199 18.7959C13.7408 19.068 11.26 19.068 8.80176 18.7959C7.45894 18.6456 6.37633 17.5902 6.21865 16.2454C5.92712 13.7569 5.92712 11.243 6.21865 8.75458C6.37633 7.40905 7.45894 6.35366 8.80176 6.204ZM16.0356 8.26395C15.8481 8.26395 15.6682 8.33832 15.5356 8.47071C15.403 8.60311 15.3285 8.78266 15.3285 8.96989C15.3285 9.15712 15.403 9.33668 15.5356 9.46907C15.6682 9.60146 15.8481 9.67584 16.0356 9.67584C16.2232 9.67584 16.403 9.60146 16.5356 9.46907C16.6683 9.33668 16.7428 9.15712 16.7428 8.96989C16.7428 8.78266 16.6683 8.60311 16.5356 8.47071C16.403 8.33832 16.2232 8.26395 16.0356 8.26395ZM9.14118 12.4996C9.14118 11.6103 9.49506 10.7574 10.125 10.1285C10.7549 9.49967 11.6092 9.14638 12.5 9.14638C13.3908 9.14638 14.2452 9.49967 14.8751 10.1285C15.505 10.7574 15.8588 11.6103 15.8588 12.4996C15.8588 13.389 15.505 14.2419 14.8751 14.8707C14.2452 15.4996 13.3908 15.8529 12.5 15.8529C11.6092 15.8529 10.7549 15.4996 10.125 14.8707C9.49506 14.2419 9.14118 13.389 9.14118 12.4996Z" fill="white"/>
</svg>
