<svg width="49" height="49" viewBox="0 0 49 49" fill="none" xmlns="http://www.w3.org/2000/svg">
<g clip-path="url(#clip0_542_8)">
<rect width="49" height="49" rx="24.5" fill="white"/>
<g clip-path="url(#clip1_542_8)">
<path d="M24.5 36.75C31.2655 36.75 36.75 31.2655 36.75 24.5C36.75 17.7345 31.2655 12.25 24.5 12.25C17.7345 12.25 12.25 17.7345 12.25 24.5C12.25 31.2655 17.7345 36.75 24.5 36.75Z" fill="#131313"/>
<path fill-rule="evenodd" clip-rule="evenodd" d="M20.4637 17.6888L22.9497 20.1647C23.3259 20.5402 23.3259 21.0655 23.0246 21.366L21.443 23.0161C22.949 24.5171 24.4557 26.0181 25.9625 27.594L27.6198 25.9431C27.921 25.6426 28.4485 25.7176 28.8247 26.093L31.3107 28.5697C31.6868 28.9444 31.7625 29.4704 31.4613 29.7702L30.0295 31.1962C27.0924 34.1225 14.8143 21.8905 17.8285 18.9642C18.2803 18.5139 18.7321 18.0635 19.1839 17.5382C19.4851 17.2384 20.0875 17.3134 20.4637 17.6888ZM30.557 17.7637V21.0655H29.502V19.4895L25.51 23.4672L24.7562 22.7913L28.8247 18.7387H27.4685V17.7637H30.557Z" fill="white"/>
</g>
</g>
<defs>
<clipPath id="clip0_542_8">
<rect width="49" height="49" rx="24.5" fill="white"/>
</clipPath>
<clipPath id="clip1_542_8">
<rect width="24.5" height="24.5" fill="white" transform="translate(12.25 12.25)"/>
</clipPath>
</defs>
</svg>
