<svg width="25" height="25" viewBox="0 0 25 25" fill="none" xmlns="http://www.w3.org/2000/svg">
<g clip-path="url(#clip0_1441_171)">
<path d="M12.5 25C19.4036 25 25 19.4036 25 12.5C25 5.59644 19.4036 0 12.5 0C5.59644 0 0 5.59644 0 12.5C0 19.4036 5.59644 25 12.5 25Z" fill="#131313"/>
<path fill-rule="evenodd" clip-rule="evenodd" d="M8.38208 5.5494L10.9188 8.07587C11.3027 8.45896 11.3027 8.99499 10.9953 9.3016L9.38135 10.9854C10.9181 12.517 12.4556 14.0487 13.9931 15.6568L15.6843 13.9722C15.9916 13.6656 16.5299 13.742 16.9137 14.1251L19.4505 16.6523C19.8343 17.0347 19.9115 17.5715 19.6041 17.8773L18.1431 19.3325C15.1461 22.3185 2.61738 9.8369 5.69311 6.85087C6.15414 6.39131 6.61517 5.93175 7.0762 5.39572C7.38355 5.08984 7.99826 5.16631 8.38208 5.5494ZM18.6813 5.62587V8.99499H17.6049V7.3869L13.5313 11.4457L12.7622 10.756L16.9137 6.62072H15.5299V5.62587H18.6813Z" fill="white"/>
</g>
<defs>
<clipPath id="clip0_1441_171">
<rect width="25" height="25" fill="white"/>
</clipPath>
</defs>
</svg>
