<svg width="79" height="37" viewBox="0 0 79 37" fill="none" xmlns="http://www.w3.org/2000/svg">
<path d="M7.74061 8.97242H6.55755V1.09411L4.94611 6.93263H3.4368L1.82536 1.09411V8.97242H0.656494V0.163574H2.54313L4.19145 6.11558L5.83978 0.163574H7.74061V8.97242Z" fill="white"/>
<path d="M13.3585 5.71937C13.1287 5.49808 12.7486 5.30517 12.2209 5.1463L11.5797 4.94487C10.8421 4.71791 10.3087 4.41719 9.98244 4.04555C9.65618 3.67106 9.49163 3.18026 9.49163 2.56747C9.49163 1.77879 9.7271 1.15466 10.1952 0.692226C10.6662 0.229797 11.3073 0 12.1216 0C12.9358 0 13.5855 0.238307 14.0735 0.717758C14.5614 1.19721 14.8026 1.83269 14.8026 2.62989V2.78025H13.5827V2.54194C13.5827 2.10504 13.455 1.76177 13.1996 1.50928C12.9443 1.25678 12.5982 1.13196 12.1613 1.13196C11.7329 1.13196 11.3953 1.25111 11.1485 1.48942C10.9016 1.72773 10.7768 2.05398 10.7768 2.46534C10.7768 2.80862 10.8846 3.08948 11.1031 3.30793C11.3215 3.52637 11.6875 3.71362 12.1982 3.87532L12.8535 4.07675C13.6082 4.31222 14.1529 4.61862 14.4905 4.99594C14.8253 5.37326 14.9927 5.87257 14.9927 6.49387C14.9927 7.29957 14.743 7.94073 14.2437 8.42018C13.7444 8.89963 13.072 9.13794 12.2237 9.13794C11.3584 9.13794 10.6718 8.89396 10.1612 8.40884C9.6505 7.92371 9.39233 7.26837 9.39233 6.44564V6.25556H10.6123V6.53359C10.6123 6.9875 10.7541 7.34496 11.0407 7.6088C11.3272 7.87264 11.7074 8.00598 12.1868 8.00598C12.6578 8.00598 13.0266 7.88116 13.3018 7.62866C13.5741 7.37617 13.7103 7.0329 13.7103 6.596C13.7046 6.23287 13.5883 5.94349 13.3585 5.71937Z" fill="white"/>
<path d="M16.6477 0.163574H17.9301V8.97242H16.6477V0.163574ZM20.6139 0.163574H21.6579V0.980624L19.6323 4.44175L21.797 8.15537V8.97242H20.7529L18.2989 4.44175L20.6139 0.163574Z" fill="white"/>
<path d="M4.32215 19.5875C4.09235 19.3663 3.71219 19.1733 3.1845 19.0145L2.54332 18.813C1.80569 18.5861 1.27232 18.2854 0.946059 17.9137C0.619799 17.5392 0.455255 17.0484 0.455255 16.4356C0.455255 15.647 0.690725 15.0228 1.15884 14.5604C1.62979 14.098 2.27096 13.8682 3.0852 13.8682C3.89943 13.8682 4.54912 14.1065 5.03709 14.5859C5.52506 15.0654 5.76621 15.7009 5.76621 16.4981V16.6484H4.54627V16.4101C4.54627 15.9732 4.41861 15.6299 4.16327 15.3774C3.90794 15.125 3.56182 15.0001 3.12492 15.0001C2.69653 15.0001 2.35891 15.1193 2.11209 15.3576C1.86527 15.5959 1.74044 15.9221 1.74044 16.3335C1.74044 16.6768 1.84824 16.9576 2.0667 17.1761C2.28515 17.3945 2.64829 17.5818 3.16179 17.7435L3.81716 17.9449C4.57181 18.1804 5.11653 18.4868 5.45413 18.8641C5.78891 19.2414 5.95629 19.7407 5.95629 20.362C5.95629 21.1677 5.70663 21.8089 5.20731 22.2884C4.70799 22.7678 4.03561 23.0061 3.18733 23.0061C2.32203 23.0061 1.63546 22.7621 1.12479 22.277C0.614126 21.7919 0.355957 21.1365 0.355957 20.3138V20.1237H1.57588V20.4017C1.57588 20.8557 1.71774 21.2131 2.00428 21.477C2.28799 21.7408 2.67099 21.8741 3.15045 21.8741C3.6214 21.8741 3.99022 21.7493 4.26541 21.4968C4.53777 21.2443 4.67395 20.9011 4.67395 20.4642C4.66827 20.101 4.55479 19.8088 4.32215 19.5875Z" fill="white"/>
<path d="M8.8348 15.1013H6.72119V14.0317H12.2336V15.1013H10.12V22.8406H8.83763V15.1013H8.8348Z" fill="white"/>
<path d="M13.5278 14.0317H18.1579V15.1013H14.8102V17.8447H17.843V18.9028H14.8102V21.771H18.1579V22.8406H13.5278V14.0317Z" fill="white"/>
<path d="M19.8818 14.0317H24.5119V15.1013H21.1642V17.8447H24.197V18.9028H21.1642V21.771H24.5119V22.8406H19.8818V14.0317Z" fill="white"/>
<path d="M26.2358 14.0317H27.5182V21.771H30.7411V22.8406H26.2358V14.0317Z" fill="white"/>
<path d="M37.0811 22.8395C36.4428 22.8395 35.9321 22.6438 35.5463 22.2551C35.1604 21.8664 34.9675 21.3501 34.9675 20.7146V20.4366C34.9675 19.8834 35.1179 19.4209 35.4158 19.0465C35.7137 18.672 36.1137 18.4393 36.6187 18.3486C36.1733 18.2322 35.8243 17.9939 35.569 17.6365C35.3136 17.279 35.186 16.8506 35.186 16.3457V16.1187C35.186 15.4889 35.3761 14.9839 35.7591 14.6009C36.1421 14.2207 36.6414 14.0278 37.2627 14.0278H39.5238V15.0208H37.6741C37.2882 15.0208 36.979 15.1371 36.7435 15.3726C36.508 15.608 36.3917 15.9173 36.3917 16.3031V16.5925C36.3917 16.9783 36.508 17.2875 36.7435 17.523C36.979 17.7585 37.2882 17.8748 37.6741 17.8748H38.9337V16.4903H40.3296L39.6997 17.8748H40.9197V18.8564H40.1508V22.8338H37.0811V22.8395ZM38.9309 18.8621H37.4584C37.0726 18.8621 36.7605 18.9784 36.5279 19.2138C36.2924 19.4493 36.1761 19.7585 36.1761 20.1444V20.5586C36.1761 20.9444 36.2924 21.2536 36.5279 21.4891C36.7634 21.7246 37.0726 21.8409 37.4584 21.8409H38.9309V18.8621Z" fill="white"/>
<path d="M6.01451 34.1167C6.01451 34.9394 5.76201 35.6033 5.25985 36.1111C4.75769 36.6189 4.09098 36.8714 3.25972 36.8714C2.41145 36.8714 1.73056 36.6104 1.21421 36.0913C0.697872 35.5721 0.439697 34.8884 0.439697 34.0401V30.5676C0.439697 29.7194 0.697872 29.0357 1.21421 28.5165C1.73056 27.9973 2.41145 27.7363 3.25972 27.7363C4.09098 27.7363 4.75769 27.9888 5.25985 28.4966C5.76201 29.0045 6.01451 29.6683 6.01451 30.491V30.8684H4.80592V30.4031C4.80592 29.9407 4.66406 29.569 4.37752 29.2882C4.09098 29.0073 3.71933 28.8654 3.25689 28.8654C2.79445 28.8654 2.42563 29.0073 2.14193 29.2882C1.86106 29.569 1.71921 29.9407 1.71921 30.4031V34.2047C1.71921 34.6671 1.86106 35.0359 2.14193 35.3196C2.42279 35.6005 2.79445 35.7423 3.25689 35.7423C3.71933 35.7423 4.09098 35.6005 4.37752 35.3196C4.66123 35.0387 4.80592 34.6671 4.80592 34.2047V33.7394H6.01451V34.1167Z" fill="white"/>
<path d="M8.28129 28.5325C8.80898 27.9991 9.50689 27.7324 10.3694 27.7324C11.2432 27.7324 11.9411 27.9991 12.4716 28.5325C12.9993 29.0658 13.2631 29.7637 13.2631 30.629V33.9766C13.2631 34.8419 12.9993 35.5398 12.4716 36.0732C11.9439 36.6065 11.2432 36.8732 10.3694 36.8732C9.50406 36.8732 8.80898 36.6065 8.28129 36.0732C7.75359 35.5398 7.48975 34.8419 7.48975 33.9766V30.629C7.48975 29.7637 7.75359 29.0658 8.28129 28.5325ZM9.21184 35.2987C9.50689 35.5937 9.89273 35.7384 10.3694 35.7384C10.8545 35.7384 11.246 35.5909 11.5382 35.2987C11.8304 35.0065 11.978 34.6178 11.978 34.1412V30.4673C11.978 29.9878 11.8304 29.602 11.5382 29.3098C11.246 29.0176 10.8545 28.8701 10.3694 28.8701C9.8899 28.8701 9.50405 29.0176 9.21184 29.3098C8.91962 29.602 8.7721 29.9907 8.7721 30.4673V34.1412C8.7721 34.6178 8.91962 35.0036 9.21184 35.2987Z" fill="white"/>
<path d="M20.6642 27.896V36.7049H18.8513L16.1845 28.8152V36.7049H15.0156V27.896H16.8285L19.484 35.7857V27.896H20.6642Z" fill="white"/>
<path d="M26.2792 33.4557C26.0494 33.2344 25.6692 33.0415 25.1415 32.8826L24.5004 32.6812C23.7627 32.4542 23.2294 32.1535 22.9031 31.7819C22.5768 31.4074 22.4123 30.9166 22.4123 30.3038C22.4123 29.5151 22.6478 28.891 23.1159 28.4285C23.5868 27.9661 24.228 27.7363 25.0422 27.7363C25.8565 27.7363 26.5062 27.9746 26.9941 28.4541C27.4821 28.9335 27.7232 29.569 27.7232 30.3662V30.5166H26.5033V30.2783C26.5033 29.8414 26.3756 29.4981 26.1203 29.2456C25.865 28.9931 25.5189 28.8683 25.082 28.8683C24.6536 28.8683 24.3159 28.9874 24.0691 29.2258C23.8223 29.4641 23.6975 29.7903 23.6975 30.2017C23.6975 30.5449 23.8053 30.8258 24.0237 31.0443C24.2422 31.2627 24.6082 31.4499 25.1188 31.6117L25.7742 31.8131C26.5288 32.0486 27.0736 32.3549 27.4112 32.7323C27.7459 33.1096 27.9133 33.6089 27.9133 34.2302C27.9133 35.0359 27.6637 35.6771 27.1643 36.1565C26.665 36.636 25.9926 36.8743 25.1444 36.8743C24.2791 36.8743 23.5925 36.6303 23.0818 36.1452C22.5712 35.66 22.313 35.0047 22.313 34.182V33.9919H23.5329V34.2699C23.5329 34.7238 23.6748 35.0813 23.9613 35.3451C24.2479 35.609 24.628 35.7423 25.1075 35.7423C25.5784 35.7423 25.9472 35.6175 26.2224 35.365C26.4948 35.1125 26.631 34.7692 26.631 34.3323C26.6253 33.9692 26.509 33.677 26.2792 33.4557Z" fill="white"/>
<path d="M30.7918 28.9655H28.6782V27.896H34.1906V28.9655H32.077V36.7049H30.7946V28.9655H30.7918Z" fill="white"/>
<path d="M36.7672 28.9655V36.7049H35.4849V27.896H38.2396C38.9858 27.896 39.5844 28.123 40.0326 28.574C40.4809 29.028 40.705 29.6237 40.705 30.3613V30.6507C40.705 31.2465 40.5547 31.7515 40.2511 32.1657C39.9475 32.5799 39.539 32.8607 39.017 33.0026L40.8157 35.885V36.702H39.8341L37.1417 32.1203H38.2368C38.5886 32.1203 38.8751 32.0125 39.0936 31.794C39.312 31.5756 39.4198 31.2919 39.4198 30.9372V30.1315C39.4198 29.7798 39.312 29.4961 39.0936 29.2833C38.8751 29.0705 38.5914 28.9627 38.2368 28.9627H36.7672V28.9655Z" fill="white"/>
<path d="M47.9546 27.896V34.0381C47.9546 34.8863 47.6936 35.5701 47.1744 36.0892C46.6553 36.6084 45.9715 36.8694 45.1233 36.8694C44.275 36.8694 43.5941 36.6084 43.0777 36.0892C42.5614 35.5701 42.3032 34.8863 42.3032 34.0381V27.896H43.5856V34.1998C43.5856 34.6622 43.7274 35.031 44.0083 35.3147C44.2892 35.5956 44.6608 35.7374 45.1233 35.7374C45.5857 35.7374 45.9573 35.5956 46.2439 35.3147C46.5304 35.0339 46.6723 34.6622 46.6723 34.1998V27.896H47.9546Z" fill="white"/>
<path d="M55.1905 34.1167C55.1905 34.9394 54.938 35.6033 54.4359 36.1111C53.9337 36.6189 53.267 36.8714 52.4357 36.8714C51.5875 36.8714 50.9066 36.6104 50.3902 36.0913C49.8739 35.5721 49.6157 34.8884 49.6157 34.0401V30.5676C49.6157 29.7194 49.8739 29.0357 50.3902 28.5165C50.9066 27.9973 51.5875 27.7363 52.4357 27.7363C53.267 27.7363 53.9337 27.9888 54.4359 28.4966C54.938 29.0045 55.1905 29.6683 55.1905 30.491V30.8684H53.9819V30.4031C53.9819 29.9407 53.8401 29.569 53.5535 29.2882C53.267 29.0073 52.8953 28.8654 52.4329 28.8654C51.9705 28.8654 51.6017 29.0073 51.318 29.2882C51.0371 29.569 50.8952 29.9407 50.8952 30.4031V34.2047C50.8952 34.6671 51.0371 35.0359 51.318 35.3196C51.5988 35.6005 51.9705 35.7423 52.4329 35.7423C52.8953 35.7423 53.267 35.6005 53.5535 35.3196C53.8373 35.0387 53.9819 34.6671 53.9819 34.2047V33.7394H55.1905V34.1167Z" fill="white"/>
<path d="M58.0985 28.966H55.9849V27.8965H61.4972V28.966H59.3836V36.7053H58.1013V28.966H58.0985Z" fill="white"/>
<path d="M62.7878 27.8965H64.0702V36.7053H62.7878V27.8965Z" fill="white"/>
<path d="M66.6116 28.5325C67.1393 27.9991 67.8372 27.7324 68.6997 27.7324C69.5735 27.7324 70.2714 27.9991 70.8019 28.5325C71.3296 29.0658 71.5935 29.7637 71.5935 30.629V33.9766C71.5935 34.8419 71.3296 35.5398 70.8019 36.0732C70.2742 36.6065 69.5735 36.8732 68.6997 36.8732C67.8344 36.8732 67.1393 36.6065 66.6116 36.0732C66.0839 35.5398 65.8201 34.8419 65.8201 33.9766V30.629C65.8201 29.7637 66.0839 29.0658 66.6116 28.5325ZM67.545 35.2987C67.8401 35.5937 68.2259 35.7384 68.7025 35.7384C69.1876 35.7384 69.5791 35.5909 69.8714 35.2987C70.1636 35.0065 70.3111 34.6178 70.3111 34.1412V30.4673C70.3111 29.9878 70.1636 29.602 69.8714 29.3098C69.5791 29.0176 69.1876 28.8701 68.7025 28.8701C68.223 28.8701 67.8372 29.0176 67.545 29.3098C67.2528 29.602 67.1052 29.9907 67.1052 30.4673V34.1412C67.1024 34.6178 67.2499 35.0036 67.545 35.2987Z" fill="white"/>
<path d="M78.9982 27.8965V36.7053H77.1853L74.5185 28.8157V36.7053H73.3496V27.8965H75.1625L77.818 35.7862V27.8965H78.9982Z" fill="white"/>
</svg>
