<svg width="11" height="12" viewBox="0 0 11 12" fill="none" xmlns="http://www.w3.org/2000/svg">
<path d="M2.21222 5.60752C3.09222 7.34381 4.51 8.76106 6.23944 9.65068L7.58389 8.30092C7.74889 8.13526 7.99333 8.08005 8.20722 8.15367C8.89167 8.38068 9.63111 8.50338 10.3889 8.50338C10.725 8.50338 11 8.77947 11 9.11691V11.2581C11 11.5956 10.725 11.8717 10.3889 11.8717C4.65056 11.8717 0 7.2027 0 1.44165C0 1.10421 0.275 0.828125 0.611111 0.828125H2.75C3.08611 0.828125 3.36111 1.10421 3.36111 1.44165C3.36111 2.20857 3.48333 2.9448 3.70944 3.63196C3.77667 3.84669 3.72778 4.08597 3.55667 4.25776L2.21222 5.60752Z" fill="white"/>
</svg>
