<svg width="150" height="37" viewBox="0 0 150 37" fill="none" xmlns="http://www.w3.org/2000/svg">
<path d="M78.7404 8.97291H77.5573V1.09459L75.9459 6.93312H74.4366L72.8251 1.09459V8.97291H71.6562V0.164062H73.5429L75.1912 6.11607L76.8395 0.164062H78.7404V8.97291Z" fill="white"/>
<path d="M84.3568 5.71937C84.127 5.49808 83.7469 5.30517 83.2192 5.1463L82.578 4.94487C81.8404 4.71791 81.307 4.41719 80.9807 4.04555C80.6545 3.67106 80.4899 3.18026 80.4899 2.56747C80.4899 1.77879 80.7254 1.15466 81.1935 0.692226C81.6645 0.229797 82.3056 0 83.1199 0C83.9341 0 84.5838 0.238307 85.0718 0.717758C85.5597 1.19721 85.8009 1.83269 85.8009 2.62989V2.78025H84.5809V2.54194C84.5809 2.10504 84.4533 1.76177 84.1979 1.50928C83.9426 1.25678 83.5965 1.13196 83.1596 1.13196C82.7312 1.13196 82.3936 1.25111 82.1468 1.48942C81.8999 1.72773 81.7751 2.05398 81.7751 2.46534C81.7751 2.80862 81.8829 3.08948 82.1014 3.30793C82.3198 3.52637 82.6858 3.71362 83.1965 3.87532L83.8518 4.07675C84.6065 4.31222 85.1512 4.61862 85.4888 4.99594C85.8236 5.37326 85.991 5.87257 85.991 6.49387C85.991 7.29957 85.7413 7.94073 85.242 8.42018C84.7427 8.89963 84.0703 9.13794 83.222 9.13794C82.3567 9.13794 81.6701 8.89396 81.1595 8.40884C80.6488 7.92371 80.3906 7.26837 80.3906 6.44564V6.25556H81.6106V6.53359C81.6106 6.9875 81.7524 7.34496 82.0389 7.6088C82.3255 7.87264 82.7057 8.00598 83.1851 8.00598C83.6561 8.00598 84.0249 7.88116 84.3001 7.62866C84.5724 7.37617 84.7086 7.0329 84.7086 6.596C84.7029 6.23287 84.5866 5.94349 84.3568 5.71937Z" fill="white"/>
<path d="M87.6484 0.164062H88.9308V8.97291H87.6484V0.164062ZM91.6146 0.164062H92.6587V0.981113L90.633 4.44224L92.7977 8.15586V8.97291H91.7536L89.2996 4.44224L91.6146 0.164062Z" fill="white"/>
<path d="M75.3217 19.5866C75.0919 19.3653 74.7117 19.1724 74.184 19.0135L73.5428 18.8121C72.8052 18.5851 72.2718 18.2844 71.9456 17.9127C71.6193 17.5383 71.4548 17.0475 71.4548 16.4347C71.4548 15.646 71.6902 15.0218 72.1583 14.5594C72.6293 14.097 73.2705 13.8672 74.0847 13.8672C74.8989 13.8672 75.5486 14.1055 76.0366 14.5849C76.5246 15.0644 76.7657 15.6999 76.7657 16.4971V16.6474H75.5458V16.4091C75.5458 15.9722 75.4181 15.629 75.1628 15.3765C74.9074 15.124 74.5613 14.9991 74.1244 14.9991C73.696 14.9991 73.3584 15.1183 73.1116 15.3566C72.8648 15.5949 72.7399 15.9212 72.7399 16.3325C72.7399 16.6758 72.8478 16.9567 73.0662 17.1751C73.2847 17.3936 73.6478 17.5808 74.1613 17.7425L74.8167 17.9439C75.5713 18.1794 76.116 18.4858 76.4536 18.8631C76.7884 19.2404 76.9558 19.7398 76.9558 20.3611C76.9558 21.1668 76.7061 21.8079 76.2068 22.2874C75.7075 22.7668 75.0351 23.0051 74.1868 23.0051C73.3215 23.0051 72.635 22.7611 72.1243 22.276C71.6136 21.7909 71.3555 21.1356 71.3555 20.3128V20.1227H72.5754V20.4008C72.5754 20.8547 72.7173 21.2122 73.0038 21.476C73.2875 21.7398 73.6705 21.8732 74.15 21.8732C74.6209 21.8732 74.9897 21.7483 75.2649 21.4959C75.5373 21.2434 75.6735 20.9001 75.6735 20.4632C75.6678 20.1001 75.5543 19.8078 75.3217 19.5866Z" fill="white"/>
<path d="M79.8363 15.1008H77.7227V14.0312H83.235V15.1008H81.1214V22.8401H79.8391V15.1008H79.8363Z" fill="white"/>
<path d="M84.5273 14.0312H89.1574V15.1008H85.8097V17.8442H88.8425V18.9024H85.8097V21.7706H89.1574V22.8401H84.5273V14.0312Z" fill="white"/>
<path d="M90.8828 14.0312H95.5129V15.1008H92.1652V17.8442H95.198V18.9024H92.1652V21.7706H95.5129V22.8401H90.8828V14.0312Z" fill="white"/>
<path d="M97.2344 14.0312H98.5167V21.7706H101.74V22.8401H97.2344V14.0312Z" fill="white"/>
<path d="M108.082 22.839C107.444 22.839 106.933 22.6433 106.548 22.2546C106.162 21.8659 105.969 21.3496 105.969 20.7141V20.4361C105.969 19.8829 106.119 19.4205 106.417 19.046C106.715 18.6715 107.115 18.4389 107.62 18.3481C107.174 18.2318 106.826 17.9935 106.57 17.636C106.315 17.2785 106.187 16.8501 106.187 16.3452V16.1182C106.187 15.4884 106.377 14.9834 106.76 14.6004C107.143 14.2203 107.643 14.0273 108.264 14.0273H110.525V15.0203H108.675C108.289 15.0203 107.98 15.1366 107.745 15.3721C107.509 15.6075 107.393 15.9168 107.393 16.3026V16.592C107.393 16.9778 107.509 17.287 107.745 17.5225C107.98 17.758 108.289 17.8743 108.675 17.8743H109.935V16.4898H111.331L110.701 17.8743H111.921V18.8559H111.152V22.8334H108.082V22.839ZM109.932 18.8616H108.46C108.074 18.8616 107.762 18.9779 107.529 19.2134C107.294 19.4488 107.177 19.7581 107.177 20.1439V20.5581C107.177 20.9439 107.294 21.2532 107.529 21.4886C107.765 21.7241 108.074 21.8404 108.46 21.8404H109.932V18.8616Z" fill="white"/>
<path d="M77.0123 34.1187C77.0123 34.9414 76.7598 35.6053 76.2577 36.1131C75.7555 36.6209 75.0888 36.8734 74.2575 36.8734C73.4092 36.8734 72.7284 36.6124 72.212 36.0932C71.6957 35.574 71.4375 34.8903 71.4375 34.0421V30.5696C71.4375 29.7213 71.6957 29.0376 72.212 28.5185C72.7284 27.9993 73.4092 27.7383 74.2575 27.7383C75.0888 27.7383 75.7555 27.9908 76.2577 28.4986C76.7598 29.0064 77.0123 29.6703 77.0123 30.493V30.8703H75.8037V30.4051C75.8037 29.9426 75.6619 29.571 75.3753 29.2901C75.0888 29.0092 74.7171 28.8674 74.2547 28.8674C73.7923 28.8674 73.4234 29.0092 73.1397 29.2901C72.8589 29.571 72.717 29.9426 72.717 30.4051V34.2066C72.717 34.669 72.8589 35.0379 73.1397 35.3216C73.4206 35.6024 73.7923 35.7443 74.2547 35.7443C74.7171 35.7443 75.0888 35.6024 75.3753 35.3216C75.659 35.0407 75.8037 34.669 75.8037 34.2066V33.7413H77.0123V34.1187Z" fill="white"/>
<path d="M79.2798 28.5344C79.8075 28.0011 80.5054 27.7344 81.3679 27.7344C82.2417 27.7344 82.9396 28.0011 83.4701 28.5344C83.9978 29.0678 84.2617 29.7657 84.2617 30.6309V33.9786C84.2617 34.8439 83.9978 35.5418 83.4701 36.0751C82.9425 36.6085 82.2417 36.8752 81.3679 36.8752C80.5026 36.8752 79.8075 36.6085 79.2798 36.0751C78.7521 35.5418 78.4883 34.8439 78.4883 33.9786V30.6309C78.4883 29.7657 78.7521 29.0678 79.2798 28.5344ZM80.2104 35.3006C80.5054 35.5957 80.8913 35.7404 81.3679 35.7404C81.853 35.7404 82.2445 35.5928 82.5368 35.3006C82.829 35.0084 82.9765 34.6197 82.9765 34.1431V30.4692C82.9765 29.9898 82.829 29.604 82.5368 29.3117C82.2445 29.0195 81.853 28.872 81.3679 28.872C80.8884 28.872 80.5026 29.0195 80.2104 29.3117C79.9182 29.604 79.7706 29.9926 79.7706 30.4692V34.1431C79.7706 34.6197 79.9182 35.0056 80.2104 35.3006Z" fill="white"/>
<path d="M91.6642 27.8945V36.7034H89.8513L87.1845 28.8137V36.7034H86.0156V27.8945H87.8285L90.484 35.7842V27.8945H91.6642Z" fill="white"/>
<path d="M97.2787 33.4576C97.0489 33.2364 96.6687 33.0435 96.141 32.8846L95.4999 32.6832C94.7622 32.4562 94.2289 32.1555 93.9026 31.7838C93.5764 31.4093 93.4118 30.9185 93.4118 30.3058C93.4118 29.5171 93.6473 28.8929 94.1154 28.4305C94.5863 27.9681 95.2275 27.7383 96.0417 27.7383C96.856 27.7383 97.5057 27.9766 97.9936 28.456C98.4816 28.9355 98.7227 29.571 98.7227 30.3682V30.5185H97.5028V30.2802C97.5028 29.8433 97.3752 29.5 97.1198 29.2476C96.8645 28.9951 96.5184 28.8702 96.0815 28.8702C95.6531 28.8702 95.3155 28.9894 95.0686 29.2277C94.8218 29.466 94.697 29.7923 94.697 30.2036C94.697 30.5469 94.8048 30.8278 95.0232 31.0462C95.2417 31.2647 95.6077 31.4519 96.1183 31.6136L96.7737 31.815C97.5284 32.0505 98.0731 32.3569 98.4107 32.7342C98.7454 33.1115 98.9128 33.6108 98.9128 34.2321C98.9128 35.0379 98.6632 35.679 98.1639 36.1585C97.6645 36.6379 96.9922 36.8762 96.1439 36.8762C95.2786 36.8762 94.592 36.6322 94.0813 36.1471C93.5707 35.662 93.3125 35.0066 93.3125 34.1839V33.9938H94.5324V34.2719C94.5324 34.7258 94.6743 35.0832 94.9608 35.3471C95.2474 35.6109 95.6275 35.7443 96.107 35.7443C96.5779 35.7443 96.9468 35.6194 97.222 35.3669C97.4943 35.1145 97.6305 34.7712 97.6305 34.3343C97.6248 33.9712 97.5085 33.6789 97.2787 33.4576Z" fill="white"/>
<path d="M101.793 28.9641H99.6797V27.8945H105.192V28.9641H103.078V36.7034H101.796V28.9641H101.793Z" fill="white"/>
<path d="M107.767 28.9641V36.7034H106.484V27.8945H109.239C109.985 27.8945 110.584 28.1215 111.032 28.5726C111.48 29.0265 111.705 29.6223 111.705 30.3599V30.6493C111.705 31.245 111.554 31.75 111.251 32.1642C110.947 32.5784 110.539 32.8593 110.017 33.0011L111.815 35.8835V36.7005H110.834L108.141 32.1188H109.236C109.588 32.1188 109.875 32.011 110.093 31.7926C110.312 31.5741 110.419 31.2904 110.419 30.9358V30.1301C110.419 29.7783 110.312 29.4946 110.093 29.2818C109.875 29.069 109.591 28.9612 109.236 28.9612H107.767V28.9641Z" fill="white"/>
<path d="M118.952 27.8945V34.0366C118.952 34.8849 118.691 35.5686 118.172 36.0878C117.653 36.6069 116.969 36.8679 116.121 36.8679C115.273 36.8679 114.592 36.6069 114.075 36.0878C113.559 35.5686 113.301 34.8849 113.301 34.0366V27.8945H114.583V34.1983C114.583 34.6608 114.725 35.0296 115.006 35.3133C115.287 35.5941 115.658 35.736 116.121 35.736C116.583 35.736 116.955 35.5941 117.241 35.3133C117.528 35.0324 117.67 34.6608 117.67 34.1983V27.8945H118.952Z" fill="white"/>
<path d="M126.192 34.1187C126.192 34.9414 125.939 35.6053 125.437 36.1131C124.935 36.6209 124.268 36.8734 123.437 36.8734C122.589 36.8734 121.908 36.6124 121.392 36.0932C120.875 35.574 120.617 34.8903 120.617 34.0421V30.5696C120.617 29.7213 120.875 29.0376 121.392 28.5185C121.908 27.9993 122.589 27.7383 123.437 27.7383C124.268 27.7383 124.935 27.9908 125.437 28.4986C125.939 29.0064 126.192 29.6703 126.192 30.493V30.8703H124.983V30.4051C124.983 29.9426 124.842 29.571 124.555 29.2901C124.268 29.0092 123.897 28.8674 123.434 28.8674C122.972 28.8674 122.603 29.0092 122.319 29.2901C122.039 29.571 121.897 29.9426 121.897 30.4051V34.2066C121.897 34.669 122.039 35.0379 122.319 35.3216C122.6 35.6024 122.972 35.7443 123.434 35.7443C123.897 35.7443 124.268 35.6024 124.555 35.3216C124.839 35.0407 124.983 34.669 124.983 34.2066V33.7413H126.192V34.1187Z" fill="white"/>
<path d="M129.098 28.9641H126.984V27.8945H132.497V28.9641H130.383V36.7034H129.101V28.9641H129.098Z" fill="white"/>
<path d="M133.789 27.8945H135.071V36.7034H133.789V27.8945Z" fill="white"/>
<path d="M137.612 28.5344C138.14 28.0011 138.837 27.7344 139.7 27.7344C140.574 27.7344 141.272 28.0011 141.802 28.5344C142.33 29.0678 142.594 29.7657 142.594 30.6309V33.9786C142.594 34.8439 142.33 35.5418 141.802 36.0751C141.274 36.6085 140.574 36.8752 139.7 36.8752C138.835 36.8752 138.14 36.6085 137.612 36.0751C137.084 35.5418 136.82 34.8439 136.82 33.9786V30.6309C136.82 29.7657 137.084 29.0678 137.612 28.5344ZM138.545 35.3006C138.84 35.5957 139.226 35.7404 139.703 35.7404C140.188 35.7404 140.579 35.5928 140.872 35.3006C141.164 35.0084 141.311 34.6197 141.311 34.1431V30.4692C141.311 29.9898 141.164 29.604 140.872 29.3117C140.579 29.0195 140.188 28.872 139.703 28.872C139.223 28.872 138.837 29.0195 138.545 29.3117C138.253 29.604 138.105 29.9926 138.105 30.4692V34.1431C138.103 34.6197 138.25 35.0056 138.545 35.3006Z" fill="white"/>
<path d="M149.996 27.8945V36.7034H148.183L145.517 28.8137V36.7034H144.348V27.8945H146.161L148.816 35.7842V27.8945H149.996Z" fill="white"/>
<path d="M57.3942 18.4932H47.317L52.3556 9.76666C52.5003 9.517 52.5003 9.21061 52.3556 8.96096L47.5496 0.637227C47.405 0.387572 47.1411 0.234375 46.8517 0.234375H37.2398C36.9533 0.234375 36.6866 0.387572 36.5419 0.637227L31.5061 9.36097H31.5005L26.4647 0.637227C26.32 0.387572 26.0562 0.234375 25.7668 0.234375H16.1549C15.8683 0.234375 15.6016 0.387572 15.457 0.637227L10.651 8.96096C10.5063 9.21061 10.5063 9.517 10.651 9.76666L15.6896 18.4932H5.61239C5.32585 18.4932 5.05917 18.6464 4.91448 18.8961L0.108517 27.2198C-0.0361724 27.4695 -0.0361724 27.7759 0.108517 28.0255L4.91448 36.3492C5.05917 36.5989 5.32302 36.7521 5.61239 36.7521H15.2243C15.5109 36.7521 15.7775 36.5989 15.9222 36.3492L20.9608 27.6227L25.9994 36.3492C26.1441 36.5989 26.408 36.7521 26.6973 36.7521H36.3093C36.5958 36.7521 36.8625 36.5989 37.0072 36.3492L42.0458 27.6227L47.0844 36.3492C47.2291 36.5989 47.4929 36.7521 47.7823 36.7521H57.3942C57.6808 36.7521 57.9474 36.5989 58.0921 36.3492L62.8981 28.0255C63.0428 27.7759 63.0428 27.4695 62.8981 27.2198L58.0921 18.8961C57.9474 18.6464 57.6808 18.4932 57.3942 18.4932Z" fill="white"/>
</svg>
