<svg width="11" height="10" viewBox="0 0 11 10" fill="none" xmlns="http://www.w3.org/2000/svg">
<path fill-rule="evenodd" clip-rule="evenodd" d="M9.44393 0.745409C9.57346 0.690675 9.71524 0.671797 9.8545 0.690741C9.99377 0.709685 10.1254 0.765758 10.2358 0.853124C10.3461 0.940489 10.4312 1.05595 10.482 1.1875C10.5328 1.31904 10.5476 1.46186 10.5248 1.60108L9.33595 8.84064C9.22063 9.53897 8.45744 9.93944 7.81952 9.59159C7.28592 9.30058 6.49337 8.85222 5.7805 8.38439C5.42406 8.15021 4.33221 7.40031 4.4664 6.8667C4.58172 6.41044 6.41632 4.69593 7.46466 3.6766C7.87613 3.27612 7.68848 3.0451 7.20257 3.41347C5.99593 4.32809 4.0586 5.71895 3.41806 6.11048C2.853 6.4557 2.55842 6.51464 2.20618 6.4557C1.56354 6.34834 0.967561 6.18205 0.48113 5.97945C-0.17618 5.7058 -0.144206 4.79855 0.480606 4.53438L9.44393 0.745409Z" fill="#F7F7F7"/>
</svg>
