<svg width="783" height="458" viewBox="0 0 783 458" fill="none" xmlns="http://www.w3.org/2000/svg">
<path d="M587.35 229.25L587.564 228.876L650.178 119.427L650.179 119.426C651.939 116.379 651.939 112.621 650.179 109.574L650.178 109.573L590.453 5.17578C588.692 2.12744 585.472 0.25 582.005 0.25H462.605C459.137 0.25 455.917 2.12744 454.156 5.17578L391.594 114.572L391.522 114.698H391.377H391.326H391.18L391.108 114.572L328.546 5.17578C326.785 2.12744 323.566 0.25 320.098 0.25H200.698C197.23 0.25 194.011 2.12744 192.249 5.17578L132.524 109.573L132.524 109.574C130.763 112.621 130.763 116.379 132.524 119.426L132.524 119.427L195.138 228.876L195.352 229.25H194.921H69.7446C66.2772 229.25 63.0582 231.127 61.2967 234.175C61.2966 234.175 61.2964 234.175 61.2962 234.176L1.57089 338.573L1.57035 338.574C-0.190117 341.621 -0.190117 345.379 1.57035 348.426L1.57089 348.427L61.2962 452.824L587.35 229.25ZM587.35 229.25H587.781M587.35 229.25H587.781M587.781 229.25H712.958C716.426 229.25 719.645 231.127 721.406 234.176L781.132 338.573L781.132 338.574C782.893 341.621 782.893 345.379 781.132 348.426L781.132 348.427L721.406 452.824C719.645 455.873 716.426 457.75 712.958 457.75H593.661C590.193 457.75 586.974 455.873 585.213 452.824L522.599 343.376L522.382 342.997M587.781 229.25L522.382 342.997M260.424 342.997L260.641 343.376L323.254 452.824L260.424 342.997ZM260.424 342.997L260.207 343.376M260.424 342.997L260.207 343.376M260.207 343.376L197.593 452.824L260.207 343.376ZM522.382 342.997L522.165 343.376M522.382 342.997L522.165 343.376M522.165 343.376L459.551 452.824L522.165 343.376ZM69.7446 457.75C66.2772 457.75 63.0582 455.873 61.2967 452.825H197.593C195.831 455.873 192.612 457.75 189.145 457.75H69.7446ZM331.703 457.75C328.235 457.75 325.016 455.873 323.255 452.825H459.551C457.789 455.873 454.57 457.75 451.103 457.75H331.703Z" stroke="#353333" stroke-width="0.5"/>
</svg>
