<svg width="25" height="25" viewBox="0 0 25 25" fill="none" xmlns="http://www.w3.org/2000/svg">
<circle cx="12.5" cy="12.5" r="12.5" fill="#D9D9D9"/>
<path fill-rule="evenodd" clip-rule="evenodd" d="M16.8606 8.06157C16.9958 8.00705 17.1439 7.98825 17.2893 8.00712C17.4347 8.02599 17.5722 8.08184 17.6874 8.16886C17.8026 8.25588 17.8914 8.37089 17.9444 8.50192C17.9975 8.63295 18.0129 8.7752 17.9891 8.91387L16.7478 16.1249C16.6274 16.8205 15.8306 17.2194 15.1645 16.8729C14.6074 16.583 13.7799 16.1364 13.0355 15.6704C12.6634 15.4372 11.5233 14.6902 11.6635 14.1587C11.7839 13.7043 13.6994 11.9965 14.794 10.9812C15.2236 10.5823 15.0277 10.3522 14.5203 10.7191C13.2605 11.6301 11.2377 13.0155 10.5689 13.4055C9.97888 13.7494 9.67129 13.8081 9.30351 13.7494C8.63253 13.6424 8.01025 13.4768 7.50236 13.275C6.81605 13.0024 6.84943 12.0987 7.50181 11.8356L16.8606 8.06157Z" fill="#131313"/>
</svg>
