<svg width="11" height="12" viewBox="0 0 11 12" fill="none" xmlns="http://www.w3.org/2000/svg">
<path fill-rule="evenodd" clip-rule="evenodd" d="M2.37072 0.927494C4.45055 0.696044 6.54948 0.696044 8.6293 0.927494C9.76554 1.05484 10.6816 1.95289 10.815 3.09783C11.0617 5.2151 11.0617 7.35402 10.815 9.47129C10.6816 10.6162 9.76554 11.5143 8.6299 11.6422C6.54988 11.8737 4.45074 11.8737 2.37072 11.6422C1.23449 11.5143 0.318436 10.6162 0.185007 9.47189C-0.0616692 7.35442 -0.0616692 5.2153 0.185007 3.09783C0.318436 1.95289 1.23449 1.05484 2.37072 0.927494ZM8.49169 2.68034C8.333 2.68034 8.18081 2.74363 8.0686 2.85629C7.95639 2.96894 7.89335 3.12173 7.89335 3.28105C7.89335 3.44036 7.95639 3.59315 8.0686 3.70581C8.18081 3.81846 8.333 3.88175 8.49169 3.88175C8.65037 3.88175 8.80256 3.81846 8.91477 3.70581C9.02698 3.59315 9.09002 3.44036 9.09002 3.28105C9.09002 3.12173 9.02698 2.96894 8.91477 2.85629C8.80256 2.74363 8.65037 2.68034 8.49169 2.68034ZM2.65792 6.28456C2.65792 5.52781 2.95736 4.80205 3.49035 4.26695C4.02335 3.73184 4.74624 3.43122 5.50001 3.43122C6.25378 3.43122 6.97668 3.73184 7.50967 4.26695C8.04267 4.80205 8.3421 5.52781 8.3421 6.28456C8.3421 7.04131 8.04267 7.76707 7.50967 8.30217C6.97668 8.83728 6.25378 9.1379 5.50001 9.1379C4.74624 9.1379 4.02335 8.83728 3.49035 8.30217C2.95736 7.76707 2.65792 7.04131 2.65792 6.28456Z" fill="white"/>
</svg>
