<svg width="40" height="24" viewBox="0 0 40 24" fill="none" xmlns="http://www.w3.org/2000/svg">
<path d="M36.3292 12.1232H29.9508L33.1413 6.54613C33.2333 6.38694 33.2333 6.1906 33.1413 6.03141L30.0979 0.711708C30.006 0.552515 29.8378 0.454346 29.6564 0.454346H23.5723C23.391 0.454346 23.2228 0.552515 23.1308 0.711708L19.9429 6.28611H19.9402L16.7523 0.711708C16.6603 0.552515 16.4921 0.454346 16.3108 0.454346H10.2267C10.0454 0.454346 9.87715 0.552515 9.78517 0.711708L6.7418 6.03141C6.64981 6.1906 6.64981 6.38694 6.7418 6.54613L9.93234 12.1232H3.55388C3.37254 12.1232 3.20434 12.2214 3.11236 12.3806L0.0689883 17.7003C-0.0229961 17.8594 -0.0229961 18.0558 0.0689883 18.215L3.11236 23.5347C3.20434 23.6939 3.37254 23.792 3.55388 23.792H9.63799C9.81933 23.792 9.98753 23.6939 10.0795 23.5347L13.2701 17.9576L16.4606 23.5347C16.5526 23.6939 16.7208 23.792 16.9021 23.792H22.9862C23.1676 23.792 23.3358 23.6939 23.4278 23.5347L26.6183 17.9576L29.8089 23.5347C29.9008 23.6939 30.069 23.792 30.2504 23.792H36.3292C36.5106 23.792 36.6788 23.6939 36.7708 23.5347L39.8141 18.215C39.9061 18.0558 39.9061 17.8594 39.8141 17.7003L36.7708 12.3806C36.6788 12.2214 36.5106 12.1232 36.3292 12.1232Z" fill="white"/>
</svg>
