<svg width="96" height="28" viewBox="0 0 96 28" fill="none" xmlns="http://www.w3.org/2000/svg">
<path d="M45.4397 2.20776H46.2768L48.2453 7.01577H48.3132L50.2816 2.20776H51.1188V8H50.4626V3.59926H50.4061L48.596 8H47.9625L46.1524 3.59926H46.0958V8H45.4397V2.20776ZM55.6928 3.65582C55.6588 3.36923 55.5212 3.14674 55.2798 2.98836C55.0385 2.82998 54.7425 2.75079 54.3918 2.75079C54.1353 2.75079 53.911 2.79227 53.7187 2.87523C53.5282 2.95819 53.3793 3.07226 53.2718 3.21745C53.1662 3.36263 53.1134 3.52761 53.1134 3.71239C53.1134 3.867 53.1502 3.99993 53.2237 4.11117C53.2991 4.22053 53.3953 4.31197 53.5122 4.38551C53.6291 4.45716 53.7516 4.51655 53.8799 4.56369C54.0081 4.60894 54.1259 4.64571 54.2334 4.67399L54.8217 4.83237C54.9725 4.87197 55.1403 4.92665 55.3251 4.99641C55.5118 5.06617 55.6899 5.16139 55.8596 5.28206C56.0312 5.40085 56.1726 5.55357 56.2839 5.74024C56.3951 5.9269 56.4507 6.15599 56.4507 6.4275C56.4507 6.74049 56.3687 7.02331 56.2047 7.27597C56.0425 7.52863 55.8049 7.72943 55.492 7.87839C55.1809 8.02734 54.8028 8.10182 54.3578 8.10182C53.943 8.10182 53.5838 8.03488 53.2803 7.90101C52.9786 7.76714 52.741 7.58048 52.5676 7.34102C52.396 7.10156 52.2989 6.82345 52.2762 6.50669H53.0003C53.0191 6.72541 53.0927 6.90641 53.2209 7.04971C53.351 7.19112 53.515 7.29671 53.713 7.36647C53.9129 7.43435 54.1278 7.46829 54.3578 7.46829C54.6256 7.46829 54.866 7.42492 55.079 7.33819C55.2921 7.24957 55.4608 7.12702 55.5853 6.97052C55.7097 6.81214 55.772 6.62736 55.772 6.41619C55.772 6.22387 55.7182 6.06737 55.6107 5.9467C55.5033 5.82603 55.3619 5.72798 55.1865 5.65256C55.0112 5.57714 54.8217 5.51115 54.618 5.45458L53.9053 5.25095C53.4528 5.12085 53.0946 4.93513 52.8306 4.69379C52.5666 4.45244 52.4346 4.13662 52.4346 3.74633C52.4346 3.42202 52.5223 3.1392 52.6977 2.89785C52.8749 2.65463 53.1125 2.46608 53.4104 2.33221C53.7102 2.19645 54.0448 2.12857 54.4144 2.12857C54.7877 2.12857 55.1196 2.19551 55.4099 2.32938C55.7003 2.46136 55.9303 2.64237 56.1 2.8724C56.2716 3.10243 56.3621 3.36357 56.3715 3.65582H55.6928ZM57.6039 8V2.20776H58.3053V5.08126H58.3732L60.9752 2.20776H61.8916L59.4593 4.82106L61.8916 8H61.0431L59.0294 5.30752L58.3053 6.12205V8H57.6039Z" fill="white"/>
<path d="M49.3992 12.8831C49.337 12.6926 49.255 12.522 49.1532 12.3712C49.0532 12.2184 48.9335 12.0883 48.794 11.9809C48.6563 11.8734 48.4998 11.7914 48.3245 11.7348C48.1491 11.6782 47.9568 11.65 47.7475 11.65C47.4044 11.65 47.0923 11.7386 46.8114 11.9158C46.5304 12.0931 46.307 12.3542 46.1411 12.6992C45.9752 13.0443 45.8922 13.4676 45.8922 13.9691C45.8922 14.4707 45.9761 14.894 46.1439 15.239C46.3117 15.584 46.5389 15.8452 46.8255 16.0224C47.1121 16.1997 47.4345 16.2883 47.7928 16.2883C48.1246 16.2883 48.4169 16.2176 48.6695 16.0762C48.9241 15.9329 49.1221 15.7311 49.2635 15.4709C49.4068 15.2088 49.4784 14.9006 49.4784 14.5461L49.6934 14.5913H47.9512V13.9691H50.1572V14.5913C50.1572 15.0684 50.0554 15.4832 49.8517 15.8358C49.65 16.1883 49.3709 16.4617 49.0146 16.6559C48.6601 16.8483 48.2528 16.9444 47.7928 16.9444C47.2799 16.9444 46.8293 16.8238 46.4409 16.5824C46.0544 16.3411 45.7527 15.9979 45.5358 15.5529C45.3209 15.108 45.2134 14.58 45.2134 13.9691C45.2134 13.5109 45.2747 13.099 45.3973 12.7332C45.5217 12.3655 45.6971 12.0525 45.9233 11.7942C46.1496 11.5359 46.4173 11.3379 46.7265 11.2003C47.0358 11.0626 47.3761 10.9938 47.7475 10.9938C48.053 10.9938 48.3377 11.04 48.6017 11.1324C48.8675 11.2229 49.1041 11.3521 49.3115 11.5199C49.5208 11.6858 49.6952 11.8847 49.8348 12.1166C49.9743 12.3466 50.0705 12.6021 50.1233 12.8831H49.3992ZM51.3585 16.8652V11.073H53.3156C53.7681 11.073 54.1396 11.1503 54.43 11.3049C54.7203 11.4576 54.9353 11.6679 55.0748 11.9356C55.2143 12.2034 55.2841 12.5079 55.2841 12.8491C55.2841 13.1904 55.2143 13.493 55.0748 13.757C54.9353 14.021 54.7213 14.2284 54.4328 14.3792C54.1443 14.5282 53.7757 14.6026 53.3269 14.6026H51.7431V13.9691H53.3043C53.6135 13.9691 53.8624 13.9239 54.051 13.8334C54.2414 13.7429 54.379 13.6146 54.4639 13.4487C54.5506 13.2809 54.594 13.081 54.594 12.8491C54.594 12.6172 54.5506 12.4145 54.4639 12.2411C54.3772 12.0676 54.2386 11.9337 54.0481 11.8395C53.8577 11.7433 53.606 11.6952 53.293 11.6952H52.0599V16.8652H51.3585ZM54.0849 14.2633L55.5103 16.8652H54.6958L53.293 14.2633H54.0849ZM61.3401 13.9691C61.3401 14.58 61.2298 15.108 61.0091 15.5529C60.7885 15.9979 60.4859 16.3411 60.1013 16.5824C59.7166 16.8238 59.2773 16.9444 58.7833 16.9444C58.2893 16.9444 57.85 16.8238 57.4654 16.5824C57.0807 16.3411 56.7781 15.9979 56.5575 15.5529C56.3369 15.108 56.2266 14.58 56.2266 13.9691C56.2266 13.3582 56.3369 12.8303 56.5575 12.3853C56.7781 11.9403 57.0807 11.5972 57.4654 11.3558C57.85 11.1145 58.2893 10.9938 58.7833 10.9938C59.2773 10.9938 59.7166 11.1145 60.1013 11.3558C60.4859 11.5972 60.7885 11.9403 61.0091 12.3853C61.2298 12.8303 61.3401 13.3582 61.3401 13.9691ZM60.6613 13.9691C60.6613 13.4676 60.5774 13.0443 60.4096 12.6992C60.2436 12.3542 60.0183 12.0931 59.7336 11.9158C59.4508 11.7386 59.134 11.65 58.7833 11.65C58.4326 11.65 58.1149 11.7386 57.8302 11.9158C57.5474 12.0931 57.3221 12.3542 57.1543 12.6992C56.9883 13.0443 56.9054 13.4676 56.9054 13.9691C56.9054 14.4707 56.9883 14.894 57.1543 15.239C57.3221 15.584 57.5474 15.8452 57.8302 16.0224C58.1149 16.1997 58.4326 16.2883 58.7833 16.2883C59.134 16.2883 59.4508 16.1997 59.7336 16.0224C60.0183 15.8452 60.2436 15.584 60.4096 15.239C60.5774 14.894 60.6613 14.4707 60.6613 13.9691ZM66.3206 11.073H67.022V14.9081C67.022 15.304 66.9287 15.6576 66.742 15.9687C66.5572 16.2779 66.2961 16.5221 65.9586 16.7012C65.6211 16.8784 65.2251 16.9671 64.7707 16.9671C64.3163 16.9671 63.9203 16.8784 63.5828 16.7012C63.2453 16.5221 62.9833 16.2779 62.7966 15.9687C62.6118 15.6576 62.5194 15.304 62.5194 14.9081V11.073H63.2208V14.8515C63.2208 15.1344 63.2831 15.3861 63.4075 15.6067C63.5319 15.8254 63.7092 15.9979 63.9392 16.1242C64.1711 16.2487 64.4483 16.3109 64.7707 16.3109C65.0931 16.3109 65.3703 16.2487 65.6022 16.1242C65.8341 15.9979 66.0114 15.8254 66.1339 15.6067C66.2584 15.3861 66.3206 15.1344 66.3206 14.8515V11.073ZM68.4227 16.8652V11.073H70.3798C70.8342 11.073 71.2057 11.155 71.4941 11.3191C71.7845 11.4812 71.9995 11.7009 72.139 11.978C72.2785 12.2552 72.3483 12.5644 72.3483 12.9057C72.3483 13.247 72.2785 13.5571 72.139 13.8362C72.0013 14.1152 71.7883 14.3377 71.4998 14.5037C71.2113 14.6677 70.8418 14.7497 70.3911 14.7497H68.9883V14.1275H70.3685C70.6796 14.1275 70.9294 14.0738 71.118 13.9663C71.3065 13.8588 71.4432 13.7136 71.5281 13.5307C71.6148 13.346 71.6582 13.1376 71.6582 12.9057C71.6582 12.6738 71.6148 12.4664 71.5281 12.2835C71.4432 12.1006 71.3056 11.9573 71.1152 11.8536C70.9247 11.748 70.6721 11.6952 70.3572 11.6952H69.1241V16.8652H68.4227ZM80.6053 13.9691C80.6053 14.58 80.495 15.108 80.2744 15.5529C80.0538 15.9979 79.7512 16.3411 79.3665 16.5824C78.9819 16.8238 78.5426 16.9444 78.0486 16.9444C77.5546 16.9444 77.1153 16.8238 76.7306 16.5824C76.346 16.3411 76.0434 15.9979 75.8228 15.5529C75.6022 15.108 75.4919 14.58 75.4919 13.9691C75.4919 13.3582 75.6022 12.8303 75.8228 12.3853C76.0434 11.9403 76.346 11.5972 76.7306 11.3558C77.1153 11.1145 77.5546 10.9938 78.0486 10.9938C78.5426 10.9938 78.9819 11.1145 79.3665 11.3558C79.7512 11.5972 80.0538 11.9403 80.2744 12.3853C80.495 12.8303 80.6053 13.3582 80.6053 13.9691ZM79.9265 13.9691C79.9265 13.4676 79.8426 13.0443 79.6748 12.6992C79.5089 12.3542 79.2836 12.0931 78.9989 11.9158C78.7161 11.7386 78.3993 11.65 78.0486 11.65C77.6979 11.65 77.3802 11.7386 77.0955 11.9158C76.8126 12.0931 76.5873 12.3542 76.4195 12.6992C76.2536 13.0443 76.1706 13.4676 76.1706 13.9691C76.1706 14.4707 76.2536 14.894 76.4195 15.239C76.5873 15.584 76.8126 15.8452 77.0955 16.0224C77.3802 16.1997 77.6979 16.2883 78.0486 16.2883C78.3993 16.2883 78.7161 16.1997 78.9989 16.0224C79.2836 15.8452 79.5089 15.584 79.6748 15.239C79.8426 14.894 79.9265 14.4707 79.9265 13.9691ZM81.7847 16.8652V11.073H85.2578V11.6952H82.4861V13.6524H84.9976V14.2746H82.4861V16.8652H81.7847Z" fill="white"/>
<path d="M50.1045 21.6799H49.4031C49.3616 21.4782 49.2891 21.301 49.1854 21.1482C49.0835 20.9955 48.9591 20.8673 48.812 20.7636C48.6668 20.658 48.5056 20.5788 48.3284 20.526C48.1512 20.4732 47.9664 20.4468 47.7741 20.4468C47.4234 20.4468 47.1057 20.5355 46.8209 20.7127C46.5381 20.8899 46.3128 21.1511 46.145 21.4961C45.9791 21.8412 45.8961 22.2645 45.8961 22.766C45.8961 23.2675 45.9791 23.6908 46.145 24.0359C46.3128 24.3809 46.5381 24.6421 46.8209 24.8193C47.1057 24.9965 47.4234 25.0851 47.7741 25.0851C47.9664 25.0851 48.1512 25.0588 48.3284 25.006C48.5056 24.9532 48.6668 24.8749 48.812 24.7712C48.9591 24.6656 49.0835 24.5365 49.1854 24.3837C49.2891 24.2291 49.3616 24.0519 49.4031 23.852H50.1045C50.0517 24.1481 49.9556 24.413 49.8161 24.6468C49.6765 24.8806 49.5031 25.0795 49.2957 25.2435C49.0883 25.4057 48.8554 25.5292 48.5971 25.614C48.3407 25.6989 48.0663 25.7413 47.7741 25.7413C47.2801 25.7413 46.8407 25.6206 46.4561 25.3793C46.0715 25.1379 45.7688 24.7948 45.5482 24.3498C45.3276 23.9048 45.2173 23.3769 45.2173 22.766C45.2173 22.1551 45.3276 21.6272 45.5482 21.1822C45.7688 20.7372 46.0715 20.394 46.4561 20.1527C46.8407 19.9114 47.2801 19.7907 47.7741 19.7907C48.0663 19.7907 48.3407 19.8331 48.5971 19.918C48.8554 20.0028 49.0883 20.1272 49.2957 20.2913C49.5031 20.4534 49.6765 20.6514 49.8161 20.8852C49.9556 21.1171 50.0517 21.382 50.1045 21.6799ZM56.1251 22.766C56.1251 23.3769 56.0148 23.9048 55.7942 24.3498C55.5736 24.7948 55.271 25.1379 54.8864 25.3793C54.5017 25.6206 54.0624 25.7413 53.5684 25.7413C53.0744 25.7413 52.6351 25.6206 52.2505 25.3793C51.8658 25.1379 51.5632 24.7948 51.3426 24.3498C51.122 23.9048 51.0117 23.3769 51.0117 22.766C51.0117 22.1551 51.122 21.6272 51.3426 21.1822C51.5632 20.7372 51.8658 20.394 52.2505 20.1527C52.6351 19.9114 53.0744 19.7907 53.5684 19.7907C54.0624 19.7907 54.5017 19.9114 54.8864 20.1527C55.271 20.394 55.5736 20.7372 55.7942 21.1822C56.0148 21.6272 56.1251 22.1551 56.1251 22.766ZM55.4464 22.766C55.4464 22.2645 55.3625 21.8412 55.1947 21.4961C55.0287 21.1511 54.8034 20.8899 54.5187 20.7127C54.2359 20.5355 53.9191 20.4468 53.5684 20.4468C53.2177 20.4468 52.9 20.5355 52.6153 20.7127C52.3325 20.8899 52.1072 21.1511 51.9394 21.4961C51.7734 21.8412 51.6905 22.2645 51.6905 22.766C51.6905 23.2675 51.7734 23.6908 51.9394 24.0359C52.1072 24.3809 52.3325 24.6421 52.6153 24.8193C52.9 24.9965 53.2177 25.0851 53.5684 25.0851C53.9191 25.0851 54.2359 24.9965 54.5187 24.8193C54.8034 24.6421 55.0287 24.3809 55.1947 24.0359C55.3625 23.6908 55.4464 23.2675 55.4464 22.766ZM57.3045 19.8699H58.1417L60.1101 24.6779H60.178L62.1465 19.8699H62.9836V25.6621H62.3275V21.2614H62.2709L60.4608 25.6621H59.8273L58.0172 21.2614H57.9607V25.6621H57.3045V19.8699ZM64.39 25.6621V19.8699H66.3471C66.8015 19.8699 67.173 19.9519 67.4614 20.1159C67.7518 20.2781 67.9668 20.4977 68.1063 20.7749C68.2458 21.0521 68.3156 21.3613 68.3156 21.7026C68.3156 22.0438 68.2458 22.354 68.1063 22.6331C67.9686 22.9121 67.7556 23.1346 67.4671 23.3005C67.1786 23.4646 66.8091 23.5466 66.3584 23.5466H64.9556V22.9244H66.3358C66.6469 22.9244 66.8967 22.8706 67.0853 22.7632C67.2738 22.6557 67.4105 22.5105 67.4954 22.3276C67.5821 22.1428 67.6255 21.9345 67.6255 21.7026C67.6255 21.4707 67.5821 21.2633 67.4954 21.0804C67.4105 20.8975 67.2729 20.7542 67.0825 20.6505C66.892 20.5449 66.6394 20.4921 66.3245 20.4921H65.0914V25.6621H64.39ZM69.0919 25.6621H68.3566L70.4834 19.8699H71.2074L73.3343 25.6621H72.5989L70.8681 20.7862H70.8228L69.0919 25.6621ZM69.3634 23.3995H72.3274V24.0217H69.3634V23.3995ZM78.8296 19.8699V25.6621H78.1508L74.9945 21.1143H74.9379V25.6621H74.2365V19.8699H74.9153L78.0829 24.429H78.1395V19.8699H78.8296ZM80.9345 19.8699V25.6621H80.2331V19.8699H80.9345ZM82.3408 25.6621V19.8699H85.8365V20.4921H83.0422V22.4492H85.6555V23.0714H83.0422V25.0399H85.8818V25.6621H82.3408ZM90.2684 21.3179C90.2344 21.0313 90.0968 20.8088 89.8554 20.6505C89.6141 20.4921 89.3181 20.4129 88.9674 20.4129C88.711 20.4129 88.4866 20.4544 88.2943 20.5373C88.1038 20.6203 87.9549 20.7344 87.8474 20.8796C87.7418 21.0247 87.689 21.1897 87.689 21.3745C87.689 21.5291 87.7258 21.662 87.7993 21.7733C87.8747 21.8826 87.9709 21.9741 88.0878 22.0476C88.2047 22.1193 88.3273 22.1787 88.4555 22.2258C88.5837 22.271 88.7015 22.3078 88.809 22.3361L89.3973 22.4945C89.5481 22.5341 89.7159 22.5888 89.9007 22.6585C90.0874 22.7283 90.2655 22.8235 90.4352 22.9442C90.6068 23.063 90.7482 23.2157 90.8595 23.4023C90.9707 23.589 91.0263 23.8181 91.0263 24.0896C91.0263 24.4026 90.9443 24.6854 90.7803 24.9381C90.6181 25.1907 90.3806 25.3915 90.0676 25.5405C89.7565 25.6894 89.3784 25.7639 88.9334 25.7639C88.5186 25.7639 88.1594 25.697 87.8559 25.5631C87.5542 25.4293 87.3166 25.2426 87.1432 25.0031C86.9716 24.7637 86.8745 24.4856 86.8519 24.1688H87.5759C87.5947 24.3875 87.6683 24.5685 87.7965 24.7118C87.9266 24.8532 88.0906 24.9588 88.2886 25.0286C88.4885 25.0965 88.7034 25.1304 88.9334 25.1304C89.2012 25.1304 89.4416 25.087 89.6546 25.0003C89.8677 24.9117 90.0365 24.7891 90.1609 24.6326C90.2853 24.4742 90.3476 24.2895 90.3476 24.0783C90.3476 23.886 90.2938 23.7295 90.1864 23.6088C90.0789 23.4881 89.9375 23.3901 89.7621 23.3147C89.5868 23.2393 89.3973 23.1733 89.1936 23.1167L88.4809 22.9131C88.0284 22.783 87.6702 22.5972 87.4062 22.3559C87.1422 22.1146 87.0102 21.7987 87.0102 21.4084C87.0102 21.0841 87.0979 20.8013 87.2733 20.56C87.4505 20.3167 87.6881 20.1282 87.986 19.9943C88.2858 19.8586 88.6204 19.7907 88.99 19.7907C89.3633 19.7907 89.6952 19.8576 89.9855 19.9915C90.2759 20.1235 90.5059 20.3045 90.6756 20.5345C90.8472 20.7645 90.9377 21.0257 90.9471 21.3179H90.2684Z" fill="white"/>
<path d="M36.3292 14.1239H29.9508L33.1413 8.54686C33.2333 8.38767 33.2333 8.19133 33.1413 8.03214L30.0979 2.71244C30.006 2.55325 29.8378 2.45508 29.6564 2.45508H23.5723C23.391 2.45508 23.2228 2.55325 23.1308 2.71244L19.9429 8.28685H19.9402L16.7523 2.71244C16.6603 2.55325 16.4921 2.45508 16.3108 2.45508H10.2267C10.0454 2.45508 9.87715 2.55325 9.78517 2.71244L6.7418 8.03214C6.64981 8.19133 6.64981 8.38767 6.7418 8.54686L9.93234 14.1239H3.55388C3.37254 14.1239 3.20434 14.2221 3.11236 14.3813L0.0689883 19.701C-0.0229961 19.8602 -0.0229961 20.0565 0.0689883 20.2157L3.11236 25.5354C3.20434 25.6946 3.37254 25.7928 3.55388 25.7928H9.63799C9.81933 25.7928 9.98753 25.6946 10.0795 25.5354L13.2701 19.9583L16.4606 25.5354C16.5526 25.6946 16.7208 25.7928 16.9021 25.7928H22.9862C23.1676 25.7928 23.3358 25.6946 23.4278 25.5354L26.6183 19.9583L29.8089 25.5354C29.9008 25.6946 30.069 25.7928 30.2504 25.7928H36.3292C36.5106 25.7928 36.6788 25.6946 36.7708 25.5354L39.8141 20.2157C39.9061 20.0565 39.9061 19.8602 39.8141 19.701L36.7708 14.3813C36.6788 14.2221 36.5106 14.1239 36.3292 14.1239Z" fill="white"/>
</svg>
